<mxfile host="app.diagrams.net" agent="Mozilla/5.0 (Windows NT 10.0; Win64; x64) AppleWebKit/537.36 (KHTML, like Gecko) Chrome/134.0.0.0 Safari/537.36" version="26.2.5">
  <diagram name="PÃ¡gina-1" id="A53tiu2hxCH45T0HwRFI">
    <mxGraphModel dx="3508" dy="497" grid="1" gridSize="10" guides="1" tooltips="1" connect="1" arrows="1" fold="1" page="1" pageScale="1" pageWidth="827" pageHeight="1169" math="0" shadow="0">
      <root>
        <mxCell id="0" />
        <mxCell id="1" parent="0" />
        <mxCell id="2XbuXTG4k0nstdT7yqiI-1" value="Cliente" style="swimlane" vertex="1" parent="1">
          <mxGeometry x="-271" y="999" width="401" height="1081" as="geometry" />
        </mxCell>
        <mxCell id="2XbuXTG4k0nstdT7yqiI-2" value="" style="endArrow=none;html=1;rounded=0;exitX=0.517;exitY=0;exitDx=0;exitDy=0;exitPerimeter=0;entryX=0.503;entryY=1.013;entryDx=0;entryDy=0;entryPerimeter=0;" edge="1" parent="2XbuXTG4k0nstdT7yqiI-1" source="2XbuXTG4k0nstdT7yqiI-5">
          <mxGeometry width="50" height="50" relative="1" as="geometry">
            <mxPoint x="190.04000000000815" y="116" as="sourcePoint" />
            <mxPoint x="190.36000000000058" y="89.5199999999968" as="targetPoint" />
          </mxGeometry>
        </mxCell>
        <mxCell id="2XbuXTG4k0nstdT7yqiI-3" value="" style="endArrow=none;html=1;rounded=0;exitX=0.517;exitY=0;exitDx=0;exitDy=0;exitPerimeter=0;" edge="1" parent="2XbuXTG4k0nstdT7yqiI-1">
          <mxGeometry width="50" height="50" relative="1" as="geometry">
            <mxPoint x="187.76999999999998" y="69.48000000000002" as="sourcePoint" />
            <mxPoint x="188" y="57" as="targetPoint" />
          </mxGeometry>
        </mxCell>
        <mxCell id="2XbuXTG4k0nstdT7yqiI-4" value="" style="ellipse;whiteSpace=wrap;html=1;aspect=fixed;" vertex="1" parent="2XbuXTG4k0nstdT7yqiI-1">
          <mxGeometry x="174" y="29" width="28" height="28" as="geometry" />
        </mxCell>
        <mxCell id="2XbuXTG4k0nstdT7yqiI-5" value="Scanea QR" style="rounded=1;whiteSpace=wrap;html=1;" vertex="1" parent="2XbuXTG4k0nstdT7yqiI-1">
          <mxGeometry x="120.5" y="71" width="123" height="32" as="geometry" />
        </mxCell>
        <mxCell id="2XbuXTG4k0nstdT7yqiI-6" value="Take away o Stay" style="rhombus;whiteSpace=wrap;html=1;" vertex="1" parent="2XbuXTG4k0nstdT7yqiI-1">
          <mxGeometry x="21" y="99" width="80.5" height="79" as="geometry" />
        </mxCell>
        <mxCell id="2XbuXTG4k0nstdT7yqiI-7" value="Solicitar mozo" style="rounded=1;whiteSpace=wrap;html=1;" vertex="1" parent="2XbuXTG4k0nstdT7yqiI-1">
          <mxGeometry x="52" y="222" width="59" height="32" as="geometry" />
        </mxCell>
        <mxCell id="2XbuXTG4k0nstdT7yqiI-8" value="Sistema" style="swimlane" vertex="1" parent="1">
          <mxGeometry x="129" y="1000" width="400" height="1162.75" as="geometry" />
        </mxCell>
        <mxCell id="2XbuXTG4k0nstdT7yqiI-9" value="" style="endArrow=none;html=1;rounded=0;entryX=0.503;entryY=1.013;entryDx=0;entryDy=0;entryPerimeter=0;" edge="1" parent="2XbuXTG4k0nstdT7yqiI-8">
          <mxGeometry width="50" height="50" relative="1" as="geometry">
            <mxPoint x="-210" y="266" as="sourcePoint" />
            <mxPoint x="-210.24" y="251" as="targetPoint" />
          </mxGeometry>
        </mxCell>
        <mxCell id="2XbuXTG4k0nstdT7yqiI-10" value="" style="endArrow=classic;html=1;rounded=0;" edge="1" parent="2XbuXTG4k0nstdT7yqiI-8">
          <mxGeometry width="50" height="50" relative="1" as="geometry">
            <mxPoint x="-210" y="266" as="sourcePoint" />
            <mxPoint x="141" y="266" as="targetPoint" />
          </mxGeometry>
        </mxCell>
        <mxCell id="2XbuXTG4k0nstdT7yqiI-11" value="Explora la carta" style="rounded=1;whiteSpace=wrap;html=1;" vertex="1" parent="2XbuXTG4k0nstdT7yqiI-8">
          <mxGeometry x="-273.5" y="283" width="123" height="32" as="geometry" />
        </mxCell>
        <mxCell id="2XbuXTG4k0nstdT7yqiI-12" value="" style="endArrow=classic;html=1;rounded=0;" edge="1" parent="2XbuXTG4k0nstdT7yqiI-8">
          <mxGeometry width="50" height="50" relative="1" as="geometry">
            <mxPoint x="201" y="296" as="sourcePoint" />
            <mxPoint x="-146" y="296" as="targetPoint" />
          </mxGeometry>
        </mxCell>
        <mxCell id="2XbuXTG4k0nstdT7yqiI-13" value="Selecciona platos" style="rounded=1;whiteSpace=wrap;html=1;" vertex="1" parent="2XbuXTG4k0nstdT7yqiI-8">
          <mxGeometry x="-273.5" y="327" width="123" height="32" as="geometry" />
        </mxCell>
        <mxCell id="2XbuXTG4k0nstdT7yqiI-14" value="" style="endArrow=none;html=1;rounded=0;entryX=0.463;entryY=0.995;entryDx=0;entryDy=0;entryPerimeter=0;" edge="1" parent="2XbuXTG4k0nstdT7yqiI-8" target="2XbuXTG4k0nstdT7yqiI-11">
          <mxGeometry width="50" height="50" relative="1" as="geometry">
            <mxPoint x="-217" y="327" as="sourcePoint" />
            <mxPoint x="-212" y="316" as="targetPoint" />
          </mxGeometry>
        </mxCell>
        <mxCell id="2XbuXTG4k0nstdT7yqiI-15" value="" style="endArrow=none;html=1;rounded=0;entryX=0.503;entryY=1.013;entryDx=0;entryDy=0;entryPerimeter=0;" edge="1" parent="2XbuXTG4k0nstdT7yqiI-8">
          <mxGeometry width="50" height="50" relative="1" as="geometry">
            <mxPoint x="-212.76" y="374" as="sourcePoint" />
            <mxPoint x="-213" y="359" as="targetPoint" />
          </mxGeometry>
        </mxCell>
        <mxCell id="2XbuXTG4k0nstdT7yqiI-16" value="" style="endArrow=classic;html=1;rounded=0;entryX=-0.015;entryY=0.51;entryDx=0;entryDy=0;entryPerimeter=0;" edge="1" parent="2XbuXTG4k0nstdT7yqiI-8">
          <mxGeometry width="50" height="50" relative="1" as="geometry">
            <mxPoint x="-212.76" y="374" as="sourcePoint" />
            <mxPoint x="135.4399999999971" y="375.3999999999942" as="targetPoint" />
          </mxGeometry>
        </mxCell>
        <mxCell id="2XbuXTG4k0nstdT7yqiI-17" value="" style="endArrow=none;html=1;rounded=0;entryX=0.503;entryY=1.013;entryDx=0;entryDy=0;entryPerimeter=0;" edge="1" parent="2XbuXTG4k0nstdT7yqiI-8">
          <mxGeometry width="50" height="50" relative="1" as="geometry">
            <mxPoint x="-221.86999999999998" y="635" as="sourcePoint" />
            <mxPoint x="-222.15999999999997" y="620" as="targetPoint" />
          </mxGeometry>
        </mxCell>
        <mxCell id="2XbuXTG4k0nstdT7yqiI-18" value="" style="endArrow=classic;html=1;rounded=0;" edge="1" parent="2XbuXTG4k0nstdT7yqiI-8">
          <mxGeometry width="50" height="50" relative="1" as="geometry">
            <mxPoint x="-209" y="906" as="sourcePoint" />
            <mxPoint x="141" y="926" as="targetPoint" />
            <Array as="points">
              <mxPoint x="-209" y="926" />
            </Array>
          </mxGeometry>
        </mxCell>
        <mxCell id="2XbuXTG4k0nstdT7yqiI-19" value="Presenta total a pagar y medios de pago" style="rounded=1;whiteSpace=wrap;html=1;" vertex="1" parent="2XbuXTG4k0nstdT7yqiI-8">
          <mxGeometry x="128.5" y="556" width="123" height="32" as="geometry" />
        </mxCell>
        <mxCell id="2XbuXTG4k0nstdT7yqiI-20" value="Realiza pago" style="rounded=1;whiteSpace=wrap;html=1;" vertex="1" parent="2XbuXTG4k0nstdT7yqiI-8">
          <mxGeometry x="-283.5" y="588" width="123" height="32" as="geometry" />
        </mxCell>
        <mxCell id="2XbuXTG4k0nstdT7yqiI-21" value="Si" style="text;html=1;align=center;verticalAlign=middle;whiteSpace=wrap;rounded=0;" vertex="1" parent="2XbuXTG4k0nstdT7yqiI-8">
          <mxGeometry x="-208" y="645" width="60" height="30" as="geometry" />
        </mxCell>
        <mxCell id="2XbuXTG4k0nstdT7yqiI-22" value="No" style="text;html=1;align=center;verticalAlign=middle;resizable=0;points=[];autosize=1;strokeColor=none;fillColor=none;" vertex="1" parent="2XbuXTG4k0nstdT7yqiI-8">
          <mxGeometry x="-289" y="645" width="40" height="30" as="geometry" />
        </mxCell>
        <mxCell id="2XbuXTG4k0nstdT7yqiI-23" value="Confirma pedido" style="rounded=1;whiteSpace=wrap;html=1;" vertex="1" parent="2XbuXTG4k0nstdT7yqiI-8">
          <mxGeometry x="131" y="655" width="123" height="32" as="geometry" />
        </mxCell>
        <mxCell id="2XbuXTG4k0nstdT7yqiI-24" value="Pago ok?" style="rhombus;whiteSpace=wrap;html=1;" vertex="1" parent="2XbuXTG4k0nstdT7yqiI-8">
          <mxGeometry x="-262" y="635" width="80" height="80" as="geometry" />
        </mxCell>
        <mxCell id="2XbuXTG4k0nstdT7yqiI-25" value="" style="endArrow=classic;html=1;rounded=0;exitX=0.513;exitY=1.048;exitDx=0;exitDy=0;exitPerimeter=0;" edge="1" parent="2XbuXTG4k0nstdT7yqiI-8" source="2XbuXTG4k0nstdT7yqiI-19">
          <mxGeometry width="50" height="50" relative="1" as="geometry">
            <mxPoint x="191" y="605" as="sourcePoint" />
            <mxPoint x="-159" y="605" as="targetPoint" />
            <Array as="points">
              <mxPoint x="191" y="605" />
            </Array>
          </mxGeometry>
        </mxCell>
        <mxCell id="2XbuXTG4k0nstdT7yqiI-26" value="" style="endArrow=classic;html=1;rounded=0;exitX=0.246;exitY=0.505;exitDx=0;exitDy=0;exitPerimeter=0;" edge="1" parent="2XbuXTG4k0nstdT7yqiI-8">
          <mxGeometry width="50" height="50" relative="1" as="geometry">
            <mxPoint x="-249.97999999986496" y="759.6349999999511" as="sourcePoint" />
            <mxPoint x="-249.5" y="787" as="targetPoint" />
          </mxGeometry>
        </mxCell>
        <mxCell id="2XbuXTG4k0nstdT7yqiI-27" value="" style="endArrow=classic;html=1;rounded=0;exitX=0.246;exitY=0.505;exitDx=0;exitDy=0;exitPerimeter=0;" edge="1" parent="2XbuXTG4k0nstdT7yqiI-8">
          <mxGeometry width="50" height="50" relative="1" as="geometry">
            <mxPoint x="-177.83999999999997" y="836" as="sourcePoint" />
            <mxPoint x="-177.83999999999997" y="863" as="targetPoint" />
          </mxGeometry>
        </mxCell>
        <mxCell id="2XbuXTG4k0nstdT7yqiI-28" value="Solicitar mozo" style="rounded=1;whiteSpace=wrap;html=1;" vertex="1" parent="2XbuXTG4k0nstdT7yqiI-8">
          <mxGeometry x="-207" y="790.5" width="59" height="32" as="geometry" />
        </mxCell>
        <mxCell id="2XbuXTG4k0nstdT7yqiI-29" value="Esperar pedido" style="shape=or;whiteSpace=wrap;html=1;" vertex="1" parent="2XbuXTG4k0nstdT7yqiI-8">
          <mxGeometry x="-269" y="788" width="59" height="37" as="geometry" />
        </mxCell>
        <mxCell id="2XbuXTG4k0nstdT7yqiI-30" value="" style="endArrow=classic;html=1;rounded=0;exitX=0.246;exitY=0.505;exitDx=0;exitDy=0;exitPerimeter=0;" edge="1" parent="2XbuXTG4k0nstdT7yqiI-8">
          <mxGeometry width="50" height="50" relative="1" as="geometry">
            <mxPoint x="-244.94" y="836" as="sourcePoint" />
            <mxPoint x="-244.94" y="863" as="targetPoint" />
          </mxGeometry>
        </mxCell>
        <mxCell id="2XbuXTG4k0nstdT7yqiI-31" value="Recibe pedido" style="rounded=1;whiteSpace=wrap;html=1;" vertex="1" parent="2XbuXTG4k0nstdT7yqiI-8">
          <mxGeometry x="-273.5" y="862" width="59.5" height="32" as="geometry" />
        </mxCell>
        <mxCell id="2XbuXTG4k0nstdT7yqiI-32" value="Solicitar mozo" style="rounded=1;whiteSpace=wrap;html=1;" vertex="1" parent="2XbuXTG4k0nstdT7yqiI-8">
          <mxGeometry x="-210" y="862" width="65" height="32" as="geometry" />
        </mxCell>
        <mxCell id="2XbuXTG4k0nstdT7yqiI-33" value="" style="endArrow=classic;html=1;rounded=0;exitX=0.246;exitY=0.505;exitDx=0;exitDy=0;exitPerimeter=0;" edge="1" parent="2XbuXTG4k0nstdT7yqiI-8">
          <mxGeometry width="50" height="50" relative="1" as="geometry">
            <mxPoint x="-177.82999999999998" y="760" as="sourcePoint" />
            <mxPoint x="-177.32999999999998" y="787" as="targetPoint" />
          </mxGeometry>
        </mxCell>
        <mxCell id="2XbuXTG4k0nstdT7yqiI-34" value="Recibe encuesta" style="rounded=1;whiteSpace=wrap;html=1;" vertex="1" parent="2XbuXTG4k0nstdT7yqiI-8">
          <mxGeometry x="-283.5" y="1066" width="123" height="32" as="geometry" />
        </mxCell>
        <mxCell id="2XbuXTG4k0nstdT7yqiI-35" value="" style="endArrow=classic;html=1;rounded=0;exitX=0.502;exitY=0.971;exitDx=0;exitDy=0;exitPerimeter=0;" edge="1" parent="2XbuXTG4k0nstdT7yqiI-8" source="2XbuXTG4k0nstdT7yqiI-55">
          <mxGeometry width="50" height="50" relative="1" as="geometry">
            <mxPoint x="-249" y="1006" as="sourcePoint" />
            <mxPoint x="-149" y="1086" as="targetPoint" />
            <Array as="points">
              <mxPoint x="213" y="1086" />
            </Array>
          </mxGeometry>
        </mxCell>
        <mxCell id="2XbuXTG4k0nstdT7yqiI-36" value="" style="ellipse;whiteSpace=wrap;html=1;aspect=fixed;fillStyle=auto;" vertex="1" parent="2XbuXTG4k0nstdT7yqiI-8">
          <mxGeometry x="-246.75" y="1118.25" width="44.5" height="44.5" as="geometry" />
        </mxCell>
        <mxCell id="2XbuXTG4k0nstdT7yqiI-37" value="Fin" style="ellipse;whiteSpace=wrap;html=1;aspect=fixed;fillStyle=solid;fillColor=#000000;" vertex="1" parent="2XbuXTG4k0nstdT7yqiI-8">
          <mxGeometry x="-239" y="1126" width="29" height="29" as="geometry" />
        </mxCell>
        <mxCell id="2XbuXTG4k0nstdT7yqiI-38" value="" style="endArrow=classic;html=1;rounded=0;exitX=0.246;exitY=0.505;exitDx=0;exitDy=0;exitPerimeter=0;" edge="1" parent="2XbuXTG4k0nstdT7yqiI-8">
          <mxGeometry width="50" height="50" relative="1" as="geometry">
            <mxPoint x="-225.99999999999994" y="1098" as="sourcePoint" />
            <mxPoint x="-226" y="1116" as="targetPoint" />
          </mxGeometry>
        </mxCell>
        <mxCell id="2XbuXTG4k0nstdT7yqiI-39" value="" style="endArrow=none;html=1;rounded=0;strokeWidth=3;" edge="1" parent="2XbuXTG4k0nstdT7yqiI-8">
          <mxGeometry width="50" height="50" relative="1" as="geometry">
            <mxPoint x="-262" y="756" as="sourcePoint" />
            <mxPoint x="-169" y="756" as="targetPoint" />
          </mxGeometry>
        </mxCell>
        <mxCell id="2XbuXTG4k0nstdT7yqiI-40" value="" style="endArrow=none;html=1;rounded=0;strokeWidth=3;" edge="1" parent="2XbuXTG4k0nstdT7yqiI-8">
          <mxGeometry width="50" height="50" relative="1" as="geometry">
            <mxPoint x="-262" y="836" as="sourcePoint" />
            <mxPoint x="-169" y="836" as="targetPoint" />
          </mxGeometry>
        </mxCell>
        <mxCell id="2XbuXTG4k0nstdT7yqiI-41" value="" style="endArrow=classic;html=1;rounded=0;exitX=0.981;exitY=0.518;exitDx=0;exitDy=0;exitPerimeter=0;" edge="1" parent="2XbuXTG4k0nstdT7yqiI-8" source="2XbuXTG4k0nstdT7yqiI-24">
          <mxGeometry width="50" height="50" relative="1" as="geometry">
            <mxPoint x="-179" y="686" as="sourcePoint" />
            <mxPoint x="131" y="676" as="targetPoint" />
          </mxGeometry>
        </mxCell>
        <mxCell id="2XbuXTG4k0nstdT7yqiI-42" value="" style="endArrow=none;html=1;rounded=0;strokeWidth=3;" edge="1" parent="2XbuXTG4k0nstdT7yqiI-8">
          <mxGeometry width="50" height="50" relative="1" as="geometry">
            <mxPoint x="-262" y="906" as="sourcePoint" />
            <mxPoint x="-169" y="906" as="targetPoint" />
          </mxGeometry>
        </mxCell>
        <mxCell id="2XbuXTG4k0nstdT7yqiI-43" value="Muestra carta" style="rounded=1;whiteSpace=wrap;html=1;" vertex="1" parent="2XbuXTG4k0nstdT7yqiI-8">
          <mxGeometry x="141" y="250" width="123" height="32" as="geometry" />
        </mxCell>
        <mxCell id="2XbuXTG4k0nstdT7yqiI-44" value="Registra los datos del pedido" style="rounded=1;whiteSpace=wrap;html=1;" vertex="1" parent="2XbuXTG4k0nstdT7yqiI-8">
          <mxGeometry x="138.5" y="361" width="123" height="32" as="geometry" />
        </mxCell>
        <mxCell id="2XbuXTG4k0nstdT7yqiI-45" value="" style="endArrow=none;html=1;rounded=0;entryX=0.503;entryY=1.013;entryDx=0;entryDy=0;entryPerimeter=0;" edge="1" parent="2XbuXTG4k0nstdT7yqiI-8">
          <mxGeometry width="50" height="50" relative="1" as="geometry">
            <mxPoint x="191.04000000000002" y="408" as="sourcePoint" />
            <mxPoint x="190.8" y="393" as="targetPoint" />
          </mxGeometry>
        </mxCell>
        <mxCell id="2XbuXTG4k0nstdT7yqiI-46" value="Propina?" style="rhombus;whiteSpace=wrap;html=1;" vertex="1" parent="2XbuXTG4k0nstdT7yqiI-8">
          <mxGeometry x="150" y="408" width="82" height="78" as="geometry" />
        </mxCell>
        <mxCell id="2XbuXTG4k0nstdT7yqiI-47" value="Si" style="text;html=1;align=center;verticalAlign=middle;whiteSpace=wrap;rounded=0;" vertex="1" parent="2XbuXTG4k0nstdT7yqiI-8">
          <mxGeometry x="210" y="417" width="61" height="30" as="geometry" />
        </mxCell>
        <mxCell id="2XbuXTG4k0nstdT7yqiI-48" value="" style="endArrow=classic;html=1;rounded=0;exitX=0.988;exitY=0.506;exitDx=0;exitDy=0;exitPerimeter=0;" edge="1" parent="2XbuXTG4k0nstdT7yqiI-8">
          <mxGeometry width="50" height="50" relative="1" as="geometry">
            <mxPoint x="231" y="447" as="sourcePoint" />
            <mxPoint x="311" y="467" as="targetPoint" />
            <Array as="points">
              <mxPoint x="311" y="447" />
            </Array>
          </mxGeometry>
        </mxCell>
        <mxCell id="2XbuXTG4k0nstdT7yqiI-49" value="Especifica propina" style="rounded=1;whiteSpace=wrap;html=1;" vertex="1" parent="2XbuXTG4k0nstdT7yqiI-8">
          <mxGeometry x="251" y="467" width="123" height="32" as="geometry" />
        </mxCell>
        <mxCell id="2XbuXTG4k0nstdT7yqiI-50" value="No" style="text;html=1;align=center;verticalAlign=middle;whiteSpace=wrap;rounded=0;" vertex="1" parent="2XbuXTG4k0nstdT7yqiI-8">
          <mxGeometry x="141" y="477" width="60" height="30" as="geometry" />
        </mxCell>
        <mxCell id="2XbuXTG4k0nstdT7yqiI-51" value="" style="endArrow=none;html=1;rounded=0;entryX=0.496;entryY=1.017;entryDx=0;entryDy=0;entryPerimeter=0;" edge="1" parent="2XbuXTG4k0nstdT7yqiI-8" target="2XbuXTG4k0nstdT7yqiI-49">
          <mxGeometry width="50" height="50" relative="1" as="geometry">
            <mxPoint x="191" y="527" as="sourcePoint" />
            <mxPoint x="311" y="507" as="targetPoint" />
            <Array as="points">
              <mxPoint x="312" y="527" />
            </Array>
          </mxGeometry>
        </mxCell>
        <mxCell id="2XbuXTG4k0nstdT7yqiI-52" value="" style="endArrow=classic;html=1;rounded=0;entryX=0.475;entryY=0.167;entryDx=0;entryDy=0;entryPerimeter=0;" edge="1" parent="2XbuXTG4k0nstdT7yqiI-8">
          <mxGeometry width="50" height="50" relative="1" as="geometry">
            <mxPoint x="190.84" y="687" as="sourcePoint" />
            <mxPoint x="-223.50000000011642" y="748.335999999952" as="targetPoint" />
            <Array as="points">
              <mxPoint x="191" y="727" />
              <mxPoint x="-223" y="727" />
            </Array>
          </mxGeometry>
        </mxCell>
        <mxCell id="2XbuXTG4k0nstdT7yqiI-53" value="Finaliza estado pedido" style="rounded=1;whiteSpace=wrap;html=1;" vertex="1" parent="2XbuXTG4k0nstdT7yqiI-8">
          <mxGeometry x="148" y="907" width="123" height="32" as="geometry" />
        </mxCell>
        <mxCell id="2XbuXTG4k0nstdT7yqiI-54" value="Envia mail con factura&amp;nbsp;" style="rounded=1;whiteSpace=wrap;html=1;" vertex="1" parent="2XbuXTG4k0nstdT7yqiI-8">
          <mxGeometry x="151" y="966" width="123" height="32" as="geometry" />
        </mxCell>
        <mxCell id="2XbuXTG4k0nstdT7yqiI-55" value="Muestra encuesta al cliente" style="rounded=1;whiteSpace=wrap;html=1;" vertex="1" parent="2XbuXTG4k0nstdT7yqiI-8">
          <mxGeometry x="151" y="1026" width="123" height="32" as="geometry" />
        </mxCell>
        <mxCell id="2XbuXTG4k0nstdT7yqiI-56" value="" style="endArrow=classic;html=1;rounded=0;exitX=0.459;exitY=1.047;exitDx=0;exitDy=0;exitPerimeter=0;entryX=0.465;entryY=-0.058;entryDx=0;entryDy=0;entryPerimeter=0;" edge="1" parent="2XbuXTG4k0nstdT7yqiI-8" source="2XbuXTG4k0nstdT7yqiI-54" target="2XbuXTG4k0nstdT7yqiI-55">
          <mxGeometry width="50" height="50" relative="1" as="geometry">
            <mxPoint x="209.36000000000007" y="1019" as="sourcePoint" />
            <mxPoint x="207" y="1026" as="targetPoint" />
          </mxGeometry>
        </mxCell>
        <mxCell id="2XbuXTG4k0nstdT7yqiI-57" value="" style="endArrow=classic;html=1;rounded=0;exitX=0.495;exitY=1.088;exitDx=0;exitDy=0;exitPerimeter=0;" edge="1" parent="2XbuXTG4k0nstdT7yqiI-8" source="2XbuXTG4k0nstdT7yqiI-53">
          <mxGeometry width="50" height="50" relative="1" as="geometry">
            <mxPoint x="209.32000000000005" y="959" as="sourcePoint" />
            <mxPoint x="209" y="966" as="targetPoint" />
          </mxGeometry>
        </mxCell>
        <mxCell id="2XbuXTG4k0nstdT7yqiI-58" value="" style="endArrow=none;html=1;rounded=0;exitX=0.496;exitY=1.01;exitDx=0;exitDy=0;exitPerimeter=0;" edge="1" parent="2XbuXTG4k0nstdT7yqiI-8" source="2XbuXTG4k0nstdT7yqiI-43">
          <mxGeometry width="50" height="50" relative="1" as="geometry">
            <mxPoint x="-200" y="276" as="sourcePoint" />
            <mxPoint x="202" y="296" as="targetPoint" />
            <Array as="points">
              <mxPoint x="202" y="286" />
            </Array>
          </mxGeometry>
        </mxCell>
        <mxCell id="2XbuXTG4k0nstdT7yqiI-59" value="" style="endArrow=classic;html=1;rounded=0;" edge="1" parent="2XbuXTG4k0nstdT7yqiI-8" target="2XbuXTG4k0nstdT7yqiI-19">
          <mxGeometry width="50" height="50" relative="1" as="geometry">
            <mxPoint x="191" y="488" as="sourcePoint" />
            <mxPoint x="181" y="506" as="targetPoint" />
          </mxGeometry>
        </mxCell>
        <mxCell id="2XbuXTG4k0nstdT7yqiI-60" value="" style="endArrow=classic;html=1;rounded=0;exitX=-0.006;exitY=0.499;exitDx=0;exitDy=0;exitPerimeter=0;entryX=-0.004;entryY=0.495;entryDx=0;entryDy=0;entryPerimeter=0;" edge="1" parent="2XbuXTG4k0nstdT7yqiI-8" source="2XbuXTG4k0nstdT7yqiI-24" target="2XbuXTG4k0nstdT7yqiI-19">
          <mxGeometry width="50" height="50" relative="1" as="geometry">
            <mxPoint x="-349" y="589" as="sourcePoint" />
            <mxPoint x="121" y="469" as="targetPoint" />
            <Array as="points">
              <mxPoint x="-299" y="675" />
              <mxPoint x="-299" y="572" />
            </Array>
          </mxGeometry>
        </mxCell>
        <mxCell id="2XbuXTG4k0nstdT7yqiI-61" style="edgeStyle=orthogonalEdgeStyle;rounded=0;orthogonalLoop=1;jettySize=auto;html=1;exitX=1;exitY=0.5;exitDx=0;exitDy=0;entryX=0.5;entryY=0;entryDx=0;entryDy=0;" edge="1" parent="1" source="2XbuXTG4k0nstdT7yqiI-68" target="2XbuXTG4k0nstdT7yqiI-71">
          <mxGeometry relative="1" as="geometry" />
        </mxCell>
        <mxCell id="2XbuXTG4k0nstdT7yqiI-62" style="edgeStyle=orthogonalEdgeStyle;rounded=0;orthogonalLoop=1;jettySize=auto;html=1;entryX=0.5;entryY=0;entryDx=0;entryDy=0;" edge="1" parent="1" target="2XbuXTG4k0nstdT7yqiI-68">
          <mxGeometry relative="1" as="geometry">
            <mxPoint x="-894" y="1080" as="sourcePoint" />
          </mxGeometry>
        </mxCell>
        <mxCell id="2XbuXTG4k0nstdT7yqiI-63" value="Mozo" style="swimlane;" vertex="1" parent="1">
          <mxGeometry x="-1054" y="1020" width="320" height="834" as="geometry" />
        </mxCell>
        <mxCell id="2XbuXTG4k0nstdT7yqiI-64" value="Ingresa al menÃº principal" style="rounded=1;whiteSpace=wrap;html=1;fontSize=12;glass=0;strokeWidth=1;shadow=0;" vertex="1" parent="2XbuXTG4k0nstdT7yqiI-63">
          <mxGeometry x="80" y="320" width="120" height="40" as="geometry" />
        </mxCell>
        <mxCell id="2XbuXTG4k0nstdT7yqiI-65" value="Selecciona la opciÃ³n &quot;Ver pedidos&quot;" style="rounded=1;whiteSpace=wrap;html=1;fontSize=12;glass=0;strokeWidth=1;shadow=0;" vertex="1" parent="2XbuXTG4k0nstdT7yqiI-63">
          <mxGeometry x="80" y="380" width="120" height="40" as="geometry" />
        </mxCell>
        <mxCell id="2XbuXTG4k0nstdT7yqiI-66" style="edgeStyle=orthogonalEdgeStyle;rounded=0;orthogonalLoop=1;jettySize=auto;html=1;exitX=0.5;exitY=1;exitDx=0;exitDy=0;entryX=0.5;entryY=0;entryDx=0;entryDy=0;" edge="1" parent="2XbuXTG4k0nstdT7yqiI-63" source="2XbuXTG4k0nstdT7yqiI-64" target="2XbuXTG4k0nstdT7yqiI-65">
          <mxGeometry relative="1" as="geometry" />
        </mxCell>
        <mxCell id="2XbuXTG4k0nstdT7yqiI-67" value="" style="ellipse;whiteSpace=wrap;html=1;aspect=fixed;" vertex="1" parent="2XbuXTG4k0nstdT7yqiI-63">
          <mxGeometry x="146" y="30" width="28" height="28" as="geometry" />
        </mxCell>
        <mxCell id="2XbuXTG4k0nstdT7yqiI-68" value="Inicia sesiÃ³n en la aplicaciÃ³n" style="rounded=1;whiteSpace=wrap;html=1;fontSize=12;glass=0;strokeWidth=1;shadow=0;" vertex="1" parent="2XbuXTG4k0nstdT7yqiI-63">
          <mxGeometry x="100" y="90" width="120" height="40" as="geometry" />
        </mxCell>
        <mxCell id="2XbuXTG4k0nstdT7yqiI-69" value="Sistema" style="swimlane;" vertex="1" parent="1">
          <mxGeometry x="-733" y="1020" width="320" height="834" as="geometry" />
        </mxCell>
        <mxCell id="2XbuXTG4k0nstdT7yqiI-70" style="edgeStyle=orthogonalEdgeStyle;rounded=0;orthogonalLoop=1;jettySize=auto;html=1;exitX=0.5;exitY=1;exitDx=0;exitDy=0;entryX=0.5;entryY=0;entryDx=0;entryDy=0;" edge="1" parent="2XbuXTG4k0nstdT7yqiI-69" source="2XbuXTG4k0nstdT7yqiI-71" target="2XbuXTG4k0nstdT7yqiI-72">
          <mxGeometry relative="1" as="geometry" />
        </mxCell>
        <mxCell id="2XbuXTG4k0nstdT7yqiI-71" value="Controla los datos" style="rounded=1;whiteSpace=wrap;html=1;fontSize=12;glass=0;strokeWidth=1;shadow=0;" vertex="1" parent="2XbuXTG4k0nstdT7yqiI-69">
          <mxGeometry x="92" y="149" width="120" height="40" as="geometry" />
        </mxCell>
        <mxCell id="2XbuXTG4k0nstdT7yqiI-72" value="Control ok?" style="rhombus;whiteSpace=wrap;html=1;shadow=0;fontFamily=Helvetica;fontSize=12;align=center;strokeWidth=1;spacing=6;spacingTop=-4;" vertex="1" parent="2XbuXTG4k0nstdT7yqiI-69">
          <mxGeometry x="108" y="214" width="88" height="80" as="geometry" />
        </mxCell>
        <mxCell id="2XbuXTG4k0nstdT7yqiI-73" value="No" style="text;html=1;align=center;verticalAlign=middle;whiteSpace=wrap;rounded=0;" vertex="1" parent="2XbuXTG4k0nstdT7yqiI-69">
          <mxGeometry x="176" y="220" width="60" height="30" as="geometry" />
        </mxCell>
        <mxCell id="2XbuXTG4k0nstdT7yqiI-74" value="Si" style="text;html=1;align=center;verticalAlign=middle;whiteSpace=wrap;rounded=0;" vertex="1" parent="2XbuXTG4k0nstdT7yqiI-69">
          <mxGeometry x="91" y="270" width="60" height="30" as="geometry" />
        </mxCell>
        <mxCell id="2XbuXTG4k0nstdT7yqiI-75" value="Muestra todos los pedidos" style="rounded=1;whiteSpace=wrap;html=1;fontSize=12;glass=0;strokeWidth=1;shadow=0;" vertex="1" parent="2XbuXTG4k0nstdT7yqiI-69">
          <mxGeometry x="92" y="570" width="120" height="46" as="geometry" />
        </mxCell>
        <mxCell id="2XbuXTG4k0nstdT7yqiI-76" style="edgeStyle=orthogonalEdgeStyle;rounded=0;orthogonalLoop=1;jettySize=auto;html=1;exitX=0.403;exitY=0.993;exitDx=0;exitDy=0;exitPerimeter=0;entryX=0.5;entryY=0;entryDx=0;entryDy=0;" edge="1" parent="2XbuXTG4k0nstdT7yqiI-69" source="2XbuXTG4k0nstdT7yqiI-77" target="2XbuXTG4k0nstdT7yqiI-75">
          <mxGeometry relative="1" as="geometry">
            <Array as="points">
              <mxPoint x="152" y="517" />
            </Array>
          </mxGeometry>
        </mxCell>
        <mxCell id="2XbuXTG4k0nstdT7yqiI-77" value="Recupera la informaciÃ³n de los pedidos" style="shape=or;whiteSpace=wrap;html=1;" vertex="1" parent="2XbuXTG4k0nstdT7yqiI-69">
          <mxGeometry x="92" y="460" width="153" height="57" as="geometry" />
        </mxCell>
        <mxCell id="2XbuXTG4k0nstdT7yqiI-78" value="" style="ellipse;whiteSpace=wrap;html=1;aspect=fixed;fillStyle=auto;" vertex="1" parent="2XbuXTG4k0nstdT7yqiI-69">
          <mxGeometry x="126" y="645" width="45" height="45" as="geometry" />
        </mxCell>
        <mxCell id="2XbuXTG4k0nstdT7yqiI-79" value="" style="edgeStyle=orthogonalEdgeStyle;rounded=0;orthogonalLoop=1;jettySize=auto;html=1;exitX=0.5;exitY=1;exitDx=0;exitDy=0;entryX=0.5;entryY=0;entryDx=0;entryDy=0;" edge="1" parent="2XbuXTG4k0nstdT7yqiI-69" source="2XbuXTG4k0nstdT7yqiI-75" target="2XbuXTG4k0nstdT7yqiI-80">
          <mxGeometry relative="1" as="geometry">
            <mxPoint x="-581" y="1636" as="sourcePoint" />
            <mxPoint x="-582" y="1754" as="targetPoint" />
          </mxGeometry>
        </mxCell>
        <mxCell id="2XbuXTG4k0nstdT7yqiI-80" value="Fin" style="ellipse;whiteSpace=wrap;html=1;aspect=fixed;fillStyle=solid;fillColor=#000000;" vertex="1" parent="2XbuXTG4k0nstdT7yqiI-69">
          <mxGeometry x="133.5" y="652.5" width="30" height="30" as="geometry" />
        </mxCell>
        <mxCell id="2XbuXTG4k0nstdT7yqiI-81" style="edgeStyle=orthogonalEdgeStyle;rounded=0;orthogonalLoop=1;jettySize=auto;html=1;exitX=1;exitY=0.5;exitDx=0;exitDy=0;entryX=-0.005;entryY=0.701;entryDx=0;entryDy=0;entryPerimeter=0;" edge="1" parent="1" source="2XbuXTG4k0nstdT7yqiI-72" target="2XbuXTG4k0nstdT7yqiI-68">
          <mxGeometry relative="1" as="geometry">
            <mxPoint x="-920" y="1200" as="targetPoint" />
            <Array as="points">
              <mxPoint x="-480" y="1274" />
              <mxPoint x="-480" y="1750" />
              <mxPoint x="-1000" y="1750" />
              <mxPoint x="-1000" y="1139" />
              <mxPoint x="-959" y="1139" />
            </Array>
          </mxGeometry>
        </mxCell>
        <mxCell id="2XbuXTG4k0nstdT7yqiI-82" style="edgeStyle=orthogonalEdgeStyle;rounded=0;orthogonalLoop=1;jettySize=auto;html=1;exitX=0.5;exitY=1;exitDx=0;exitDy=0;entryX=0.5;entryY=0;entryDx=0;entryDy=0;" edge="1" parent="1" source="2XbuXTG4k0nstdT7yqiI-72" target="2XbuXTG4k0nstdT7yqiI-64">
          <mxGeometry relative="1" as="geometry">
            <Array as="points">
              <mxPoint x="-581" y="1320" />
              <mxPoint x="-914" y="1320" />
            </Array>
          </mxGeometry>
        </mxCell>
        <mxCell id="2XbuXTG4k0nstdT7yqiI-83" style="edgeStyle=orthogonalEdgeStyle;rounded=0;orthogonalLoop=1;jettySize=auto;html=1;exitX=0.5;exitY=1;exitDx=0;exitDy=0;entryX=0.444;entryY=0.026;entryDx=0;entryDy=0;entryPerimeter=0;" edge="1" parent="1" source="2XbuXTG4k0nstdT7yqiI-65" target="2XbuXTG4k0nstdT7yqiI-77">
          <mxGeometry relative="1" as="geometry" />
        </mxCell>
        <mxCell id="2XbuXTG4k0nstdT7yqiI-84" style="edgeStyle=orthogonalEdgeStyle;rounded=0;orthogonalLoop=1;jettySize=auto;html=1;exitX=1;exitY=0.5;exitDx=0;exitDy=0;entryX=0.5;entryY=0;entryDx=0;entryDy=0;" edge="1" parent="1" source="2XbuXTG4k0nstdT7yqiI-91" target="2XbuXTG4k0nstdT7yqiI-94">
          <mxGeometry relative="1" as="geometry" />
        </mxCell>
        <mxCell id="2XbuXTG4k0nstdT7yqiI-85" style="edgeStyle=orthogonalEdgeStyle;rounded=0;orthogonalLoop=1;jettySize=auto;html=1;entryX=0.5;entryY=0;entryDx=0;entryDy=0;" edge="1" parent="1" target="2XbuXTG4k0nstdT7yqiI-91">
          <mxGeometry relative="1" as="geometry">
            <mxPoint x="-1560" y="1080" as="sourcePoint" />
          </mxGeometry>
        </mxCell>
        <mxCell id="2XbuXTG4k0nstdT7yqiI-86" value="Mozo" style="swimlane;" vertex="1" parent="1">
          <mxGeometry x="-1720" y="1020" width="320" height="834" as="geometry" />
        </mxCell>
        <mxCell id="2XbuXTG4k0nstdT7yqiI-87" value="Ingresa al menÃº principal" style="rounded=1;whiteSpace=wrap;html=1;fontSize=12;glass=0;strokeWidth=1;shadow=0;" vertex="1" parent="2XbuXTG4k0nstdT7yqiI-86">
          <mxGeometry x="80" y="320" width="120" height="40" as="geometry" />
        </mxCell>
        <mxCell id="2XbuXTG4k0nstdT7yqiI-88" value="Selecciona la opciÃ³n &quot;Ver llamados&quot;" style="rounded=1;whiteSpace=wrap;html=1;fontSize=12;glass=0;strokeWidth=1;shadow=0;" vertex="1" parent="2XbuXTG4k0nstdT7yqiI-86">
          <mxGeometry x="80" y="380" width="120" height="40" as="geometry" />
        </mxCell>
        <mxCell id="2XbuXTG4k0nstdT7yqiI-89" style="edgeStyle=orthogonalEdgeStyle;rounded=0;orthogonalLoop=1;jettySize=auto;html=1;exitX=0.5;exitY=1;exitDx=0;exitDy=0;entryX=0.5;entryY=0;entryDx=0;entryDy=0;" edge="1" parent="2XbuXTG4k0nstdT7yqiI-86" source="2XbuXTG4k0nstdT7yqiI-87" target="2XbuXTG4k0nstdT7yqiI-88">
          <mxGeometry relative="1" as="geometry" />
        </mxCell>
        <mxCell id="2XbuXTG4k0nstdT7yqiI-90" value="" style="ellipse;whiteSpace=wrap;html=1;aspect=fixed;" vertex="1" parent="2XbuXTG4k0nstdT7yqiI-86">
          <mxGeometry x="146" y="30" width="28" height="28" as="geometry" />
        </mxCell>
        <mxCell id="2XbuXTG4k0nstdT7yqiI-91" value="Inicia sesiÃ³n en la aplicaciÃ³n" style="rounded=1;whiteSpace=wrap;html=1;fontSize=12;glass=0;strokeWidth=1;shadow=0;" vertex="1" parent="2XbuXTG4k0nstdT7yqiI-86">
          <mxGeometry x="100" y="90" width="120" height="40" as="geometry" />
        </mxCell>
        <mxCell id="2XbuXTG4k0nstdT7yqiI-92" value="Sistema" style="swimlane;" vertex="1" parent="1">
          <mxGeometry x="-1399" y="1020" width="320" height="834" as="geometry" />
        </mxCell>
        <mxCell id="2XbuXTG4k0nstdT7yqiI-93" style="edgeStyle=orthogonalEdgeStyle;rounded=0;orthogonalLoop=1;jettySize=auto;html=1;exitX=0.5;exitY=1;exitDx=0;exitDy=0;entryX=0.5;entryY=0;entryDx=0;entryDy=0;" edge="1" parent="2XbuXTG4k0nstdT7yqiI-92" source="2XbuXTG4k0nstdT7yqiI-94" target="2XbuXTG4k0nstdT7yqiI-95">
          <mxGeometry relative="1" as="geometry" />
        </mxCell>
        <mxCell id="2XbuXTG4k0nstdT7yqiI-94" value="Controla los datos" style="rounded=1;whiteSpace=wrap;html=1;fontSize=12;glass=0;strokeWidth=1;shadow=0;" vertex="1" parent="2XbuXTG4k0nstdT7yqiI-92">
          <mxGeometry x="92" y="149" width="120" height="40" as="geometry" />
        </mxCell>
        <mxCell id="2XbuXTG4k0nstdT7yqiI-95" value="Control ok?" style="rhombus;whiteSpace=wrap;html=1;shadow=0;fontFamily=Helvetica;fontSize=12;align=center;strokeWidth=1;spacing=6;spacingTop=-4;" vertex="1" parent="2XbuXTG4k0nstdT7yqiI-92">
          <mxGeometry x="108" y="214" width="88" height="80" as="geometry" />
        </mxCell>
        <mxCell id="2XbuXTG4k0nstdT7yqiI-96" value="No" style="text;html=1;align=center;verticalAlign=middle;whiteSpace=wrap;rounded=0;" vertex="1" parent="2XbuXTG4k0nstdT7yqiI-92">
          <mxGeometry x="176" y="220" width="60" height="30" as="geometry" />
        </mxCell>
        <mxCell id="2XbuXTG4k0nstdT7yqiI-97" value="Si" style="text;html=1;align=center;verticalAlign=middle;whiteSpace=wrap;rounded=0;" vertex="1" parent="2XbuXTG4k0nstdT7yqiI-92">
          <mxGeometry x="91" y="270" width="60" height="30" as="geometry" />
        </mxCell>
        <mxCell id="2XbuXTG4k0nstdT7yqiI-98" value="Muestra todos los llamados" style="rounded=1;whiteSpace=wrap;html=1;fontSize=12;glass=0;strokeWidth=1;shadow=0;" vertex="1" parent="2XbuXTG4k0nstdT7yqiI-92">
          <mxGeometry x="92" y="570" width="120" height="46" as="geometry" />
        </mxCell>
        <mxCell id="2XbuXTG4k0nstdT7yqiI-99" style="edgeStyle=orthogonalEdgeStyle;rounded=0;orthogonalLoop=1;jettySize=auto;html=1;exitX=0.403;exitY=0.993;exitDx=0;exitDy=0;exitPerimeter=0;entryX=0.5;entryY=0;entryDx=0;entryDy=0;" edge="1" parent="2XbuXTG4k0nstdT7yqiI-92" source="2XbuXTG4k0nstdT7yqiI-100" target="2XbuXTG4k0nstdT7yqiI-98">
          <mxGeometry relative="1" as="geometry">
            <Array as="points">
              <mxPoint x="152" y="517" />
            </Array>
          </mxGeometry>
        </mxCell>
        <mxCell id="2XbuXTG4k0nstdT7yqiI-100" value="Recupera la informaciÃ³n de mesas que solicitaron mozo" style="shape=or;whiteSpace=wrap;html=1;" vertex="1" parent="2XbuXTG4k0nstdT7yqiI-92">
          <mxGeometry x="92" y="460" width="153" height="57" as="geometry" />
        </mxCell>
        <mxCell id="2XbuXTG4k0nstdT7yqiI-101" value="" style="ellipse;whiteSpace=wrap;html=1;aspect=fixed;fillStyle=auto;" vertex="1" parent="2XbuXTG4k0nstdT7yqiI-92">
          <mxGeometry x="123.5" y="642.5" width="55" height="55" as="geometry" />
        </mxCell>
        <mxCell id="2XbuXTG4k0nstdT7yqiI-102" value="" style="edgeStyle=orthogonalEdgeStyle;rounded=0;orthogonalLoop=1;jettySize=auto;html=1;exitX=0.5;exitY=1;exitDx=0;exitDy=0;" edge="1" parent="2XbuXTG4k0nstdT7yqiI-92" source="2XbuXTG4k0nstdT7yqiI-98">
          <mxGeometry relative="1" as="geometry">
            <mxPoint x="-581" y="1636" as="sourcePoint" />
            <mxPoint x="151" y="640" as="targetPoint" />
            <Array as="points">
              <mxPoint x="151" y="616" />
            </Array>
          </mxGeometry>
        </mxCell>
        <mxCell id="2XbuXTG4k0nstdT7yqiI-103" value="Fin" style="ellipse;whiteSpace=wrap;html=1;aspect=fixed;fillStyle=solid;fillColor=#000000;" vertex="1" parent="2XbuXTG4k0nstdT7yqiI-92">
          <mxGeometry x="131" y="650" width="40" height="40" as="geometry" />
        </mxCell>
        <mxCell id="2XbuXTG4k0nstdT7yqiI-104" style="edgeStyle=orthogonalEdgeStyle;rounded=0;orthogonalLoop=1;jettySize=auto;html=1;exitX=1;exitY=0.5;exitDx=0;exitDy=0;entryX=-0.017;entryY=0.574;entryDx=0;entryDy=0;entryPerimeter=0;" edge="1" parent="1" source="2XbuXTG4k0nstdT7yqiI-95" target="2XbuXTG4k0nstdT7yqiI-91">
          <mxGeometry relative="1" as="geometry">
            <mxPoint x="-1110" y="1414" as="targetPoint" />
            <Array as="points">
              <mxPoint x="-1146" y="1274" />
              <mxPoint x="-1146" y="1750" />
              <mxPoint x="-1666" y="1750" />
              <mxPoint x="-1666" y="1133" />
            </Array>
          </mxGeometry>
        </mxCell>
        <mxCell id="2XbuXTG4k0nstdT7yqiI-105" style="edgeStyle=orthogonalEdgeStyle;rounded=0;orthogonalLoop=1;jettySize=auto;html=1;exitX=0.5;exitY=1;exitDx=0;exitDy=0;entryX=0.5;entryY=0;entryDx=0;entryDy=0;" edge="1" parent="1" source="2XbuXTG4k0nstdT7yqiI-95" target="2XbuXTG4k0nstdT7yqiI-87">
          <mxGeometry relative="1" as="geometry">
            <Array as="points">
              <mxPoint x="-1247" y="1320" />
              <mxPoint x="-1580" y="1320" />
            </Array>
          </mxGeometry>
        </mxCell>
        <mxCell id="2XbuXTG4k0nstdT7yqiI-106" style="edgeStyle=orthogonalEdgeStyle;rounded=0;orthogonalLoop=1;jettySize=auto;html=1;exitX=0.5;exitY=1;exitDx=0;exitDy=0;entryX=0.444;entryY=0.026;entryDx=0;entryDy=0;entryPerimeter=0;" edge="1" parent="1" source="2XbuXTG4k0nstdT7yqiI-88" target="2XbuXTG4k0nstdT7yqiI-100">
          <mxGeometry relative="1" as="geometry" />
        </mxCell>
      </root>
    </mxGraphModel>
  </diagram>
</mxfile>
